# xmcd
#
# Track frame offsets: 
#        150
#        21566
#        37806
#        49806
#        76749
#        97609
#        118049
#        132052
#        143615
#        161808
#        182214
#        208733
#        229977
#        249635
#
# Disc length: 3418 seconds
#
# Revision: 1
# Processed by: cddbd v1.5.2PL0 Copyright (c) Steve Scherf et al.
# Submitted via: ExactAudioCopyFreeDBPlugin 1.0
#
DISCID=b70d580e
DTITLE=古巨基 | 趙薇 - 情深深雨濛濛音樂全紀綠 1
DYEAR=2001
DGENRE=
TTITLE0=情深深雨濛濛（片頭曲╱趙薇）
TTITLE1=好想好想（片尾曲╱古巨基） 
TTITLE2=小冤家（趙薇）
TTITLE3=離別的車站（片尾曲╱趙薇） 
TTITLE4=不由自主（片尾曲╱趙薇）
TTITLE5=自從離別後（趙薇） 
TTITLE6=新蘭花草（趙薇） 
TTITLE7=滿場飛圓舞曲（趙薇） 
TTITLE8=煙雨濛濛（片尾曲╱趙薇）
TTITLE9=情深深雨濛濛（大型管弦樂團改編曲
TTITLE10=離別的車站（小型管弦樂團） 
TTITLE11=情深深雨濛濛（雙提琴）
TTITLE12=自從離別後（小提琴）
TTITLE13=船（笛鈴齊奏Melody） 
EXTD=
EXTT0=
EXTT1=
EXTT2=
EXTT3=
EXTT4=
EXTT5=
EXTT6=
EXTT7=
EXTT8=
EXTT9=
EXTT10=
EXTT11=
EXTT12=
EXTT13=
PLAYORDER=
